<?xml version="1.0" encoding="utf-8"?>
<!-- Generator: Adobe Illustrator 17.1.0, SVG Export Plug-In . SVG Version: 6.00 Build 0)  -->
<!DOCTYPE svg PUBLIC "-//W3C//DTD SVG 1.1//EN" "http://www.w3.org/Graphics/SVG/1.1/DTD/svg11.dtd">
<svg version="1.1" id="Layer_1" xmlns="http://www.w3.org/2000/svg" xmlns:xlink="http://www.w3.org/1999/xlink" x="0px" y="0px"
	 viewBox="0 0 792 612" enable-background="new 0 0 792 612" xml:space="preserve">
<circle fill="none" stroke="#81CDBE" stroke-width="2.7622" stroke-miterlimit="10" cx="395.141" cy="305.273" r="44.467"/>
<g>
	<path fill="#81CDBE" d="M412.66,277.586c0.194,0.129,0.421,0.297,0.68,0.502c0.259,0.205,0.513,0.459,0.761,0.761
		c0.248,0.302,0.458,0.647,0.631,1.036c0.173,0.388,0.259,0.82,0.259,1.295c0,0.561-0.097,1.101-0.291,1.618
		s-0.502,0.971-0.923,1.36c-0.421,0.388-0.96,0.696-1.618,0.923c-0.659,0.227-1.44,0.34-2.347,0.34c-1.122,0-2.239-0.108-3.35-0.324
		c-1.112-0.216-2.233-0.502-3.366-0.858c-1.133-0.356-2.277-0.761-3.431-1.214c-1.155-0.453-2.326-0.917-3.512-1.392
		c-0.065,7.273-0.297,14.264-0.696,20.975c-0.4,6.712-1.031,13.25-1.894,19.616c-0.259,0.733-0.513,1.246-0.761,1.538
		c-0.248,0.291-0.481,0.437-0.696,0.437c-0.173,0-0.303-0.07-0.388-0.21c-0.086-0.141-0.129-0.307-0.129-0.502v-0.227
		c0.388-3.129,0.685-6.199,0.89-9.209c0.205-3.01,0.367-6.01,0.486-8.999c0.118-2.989,0.205-6.01,0.259-9.063
		c0.053-3.053,0.124-6.199,0.21-9.436c0.043-1.079,0.076-2.088,0.097-3.027c0.021-0.939,0.032-1.894,0.032-2.865
		c-1.727-0.604-3.534-1.122-5.422-1.554c-1.889-0.431-3.879-0.647-5.972-0.647c-3.043,0-5.838,0.286-8.384,0.858
		c-2.546,0.572-4.737,1.495-6.571,2.768c-1.834,1.273-3.259,2.929-4.273,4.969c-1.015,2.039-1.521,4.527-1.521,7.461
		c0,1.079,0.162,2.18,0.486,3.302c0.324,1.122,0.858,2.142,1.602,3.059c0.745,0.917,1.716,1.667,2.913,2.25
		c1.198,0.583,2.671,0.874,4.418,0.874c1.51,0,2.795-0.221,3.852-0.664c1.057-0.442,1.953-0.976,2.687-1.602
		c0.733-0.626,1.332-1.279,1.797-1.958c0.464-0.68,0.846-1.268,1.149-1.764l0.453,0.259c-0.151,0.302-0.361,0.696-0.631,1.181
		c-0.27,0.486-0.615,1.009-1.036,1.57c-0.421,0.561-0.923,1.133-1.505,1.716c-0.583,0.583-1.258,1.112-2.023,1.586
		c-0.766,0.475-1.624,0.858-2.573,1.149c-0.95,0.291-2.007,0.437-3.172,0.437c-1.489,0-2.849-0.264-4.079-0.793
		c-1.23-0.528-2.282-1.273-3.156-2.234c-0.874-0.96-1.554-2.12-2.039-3.48c-0.486-1.36-0.728-2.881-0.728-4.564
		c0-2.05,0.296-3.938,0.89-5.665c0.593-1.726,1.413-3.28,2.46-4.661c1.047-1.381,2.282-2.595,3.706-3.642
		c1.424-1.046,2.962-1.92,4.613-2.622c1.651-0.701,3.377-1.23,5.179-1.586c1.801-0.356,3.609-0.534,5.422-0.534
		c2.157,0,4.186,0.205,6.085,0.615c1.898,0.41,3.711,0.917,5.438,1.521v-3.528c0-0.302,0.065-0.566,0.194-0.793
		s0.296-0.41,0.502-0.55c0.205-0.14,0.426-0.248,0.664-0.324c0.237-0.075,0.453-0.113,0.647-0.113c0.173,0,0.312,0.032,0.421,0.097
		c0.108,0.065,0.162,0.162,0.162,0.291v5.859c1.251,0.475,2.476,0.95,3.674,1.424c1.198,0.475,2.39,0.906,3.577,1.295
		c1.186,0.388,2.374,0.702,3.561,0.939c1.186,0.238,2.406,0.356,3.658,0.356c0.409,0,0.825-0.054,1.246-0.162
		c0.421-0.108,0.798-0.264,1.133-0.469c0.335-0.205,0.604-0.469,0.809-0.793c0.205-0.324,0.307-0.701,0.307-1.133
		c0-0.69-0.183-1.241-0.55-1.651c-0.367-0.41-0.756-0.766-1.165-1.068L412.66,277.586z"/>
</g>
<g>
	<path fill="#81CDBE" d="M396.069,333.944c0.345,0.238,0.668,0.453,0.971,0.647c0.302,0.194,0.626,0.388,0.971,0.583
		c-0.065-1.036-0.113-2.05-0.146-3.043c-0.032-0.992-0.07-1.985-0.113-2.978c-0.885-0.065-1.608-0.205-2.169-0.421
		c-0.562-0.216-0.842-0.539-0.842-0.971c0-0.474,0.264-0.831,0.793-1.068c0.529-0.237,1.246-0.388,2.153-0.453v-3.852
		c0-2.59,0.021-5.093,0.065-7.51c0.043-2.417,0.118-4.812,0.227-7.186c0.108-2.374,0.259-4.758,0.453-7.154s0.453-4.855,0.777-7.38
		c-2.223,0.82-4.343,1.813-6.361,2.978c-2.018,1.165-3.793,2.498-5.325,3.998c-1.533,1.5-2.751,3.162-3.658,4.985
		c-0.906,1.824-1.36,3.782-1.36,5.875c0,0.453,0.076,0.977,0.227,1.57c0.151,0.594,0.377,1.198,0.68,1.813
		c0.302,0.615,0.68,1.209,1.133,1.78c0.453,0.572,0.982,1.063,1.586,1.473l-0.388,0.453c-0.669-0.453-1.252-0.987-1.748-1.602
		c-0.497-0.615-0.912-1.251-1.246-1.91c-0.335-0.658-0.583-1.316-0.745-1.975c-0.162-0.658-0.243-1.279-0.243-1.861
		c0-2.201,0.496-4.273,1.489-6.215c0.992-1.942,2.314-3.733,3.965-5.373c1.651-1.64,3.533-3.118,5.648-4.435
		c2.115-1.316,4.294-2.449,6.539-3.399c0.043-0.237,0.086-0.486,0.129-0.745c0.043-0.259,0.086-0.518,0.129-0.777
		c0.043-0.28,0.086-0.572,0.129-0.874c0.043-0.302,0.065-0.474,0.065-0.518c0-0.216-0.005-0.437-0.016-0.664
		c-0.011-0.227,0.081-0.34,0.275-0.34c0.129,0,0.27,0.043,0.421,0.129c0.151,0.087,0.291,0.194,0.421,0.324
		c0.129,0.129,0.243,0.275,0.34,0.437c0.097,0.162,0.146,0.307,0.146,0.437c-0.044,0.324-0.086,0.637-0.129,0.939
		c-0.044,0.302-0.086,0.604-0.129,0.906c2.136-0.755,4.208-1.343,6.215-1.764c2.007-0.421,3.83-0.631,5.47-0.631
		c2.222,0,4.332,0.27,6.328,0.809c1.996,0.54,3.749,1.387,5.26,2.541c1.51,1.155,2.703,2.644,3.577,4.467
		c0.874,1.824,1.311,4.02,1.311,6.587c0,2.288-0.291,4.446-0.874,6.474c-0.583,2.029-1.392,3.922-2.428,5.681
		c-1.036,1.759-2.266,3.378-3.69,4.855c-1.424,1.478-2.973,2.795-4.645,3.949c-1.672,1.155-3.443,2.142-5.309,2.962
		c-1.867,0.82-3.75,1.468-5.648,1.942c0.539,0.497,0.939,1.063,1.198,1.699c0.259,0.637,0.388,1.322,0.388,2.055
		c0,0.626-0.108,1.246-0.324,1.861c-0.216,0.615-0.545,1.176-0.987,1.683c-0.442,0.507-1.003,0.917-1.683,1.23
		c-0.68,0.313-1.473,0.469-2.379,0.469c-0.518,0-1.025-0.043-1.521-0.129c-0.497-0.086-0.96-0.194-1.392-0.324
		c0.043,0.388,0.076,0.777,0.097,1.165c0.021,0.388,0.053,0.766,0.097,1.133c0,0.108,0.011,0.264,0.032,0.469
		c0.021,0.205,0.032,0.34,0.032,0.405c0,0.194-0.081,0.367-0.243,0.518c-0.162,0.151-0.297,0.227-0.405,0.227
		c-0.712,0-1.133-0.54-1.262-1.618c-0.065-0.561-0.125-1.106-0.178-1.635c-0.054-0.528-0.103-1.063-0.146-1.602
		c-0.497-0.302-0.939-0.604-1.327-0.906c-0.388-0.302-0.723-0.572-1.003-0.809L396.069,333.944z M397.752,328.15
		c0-0.172-0.011-0.334-0.032-0.486c-0.022-0.151-0.032-0.313-0.032-0.486c-0.756,0.129-1.133,0.324-1.133,0.583
		c0,0.129,0.113,0.216,0.34,0.259C397.121,328.064,397.407,328.107,397.752,328.15z M399.597,317.015
		c0,1.23-0.011,2.628-0.032,4.192c-0.022,1.565-0.011,3.199,0.032,4.904h0.583c1.165,0,2.233,0.135,3.205,0.405
		c0.971,0.27,1.801,0.642,2.492,1.117c1.856-0.345,3.669-0.868,5.438-1.57c1.769-0.701,3.436-1.564,5.001-2.59
		c1.565-1.025,2.999-2.217,4.305-3.577c1.306-1.36,2.428-2.881,3.366-4.564s1.672-3.528,2.201-5.535
		c0.529-2.007,0.793-4.176,0.793-6.506c0-1.92-0.335-3.668-1.003-5.244c-0.669-1.575-1.614-2.918-2.832-4.03
		c-1.219-1.111-2.682-1.975-4.386-2.59c-1.705-0.615-3.604-0.923-5.697-0.923c-1.877,0-3.841,0.168-5.891,0.502
		c-2.051,0.335-4.111,0.836-6.183,1.505c-0.345,3.216-0.615,6.037-0.809,8.465c-0.194,2.428-0.335,4.596-0.421,6.506
		c-0.086,1.91-0.135,3.625-0.146,5.147C399.602,314.15,399.597,315.612,399.597,317.015z M399.662,328.214h0.129
		c0.755,0,1.51-0.021,2.266-0.065c0.755-0.043,1.5-0.129,2.233-0.259c-0.497-0.259-1.074-0.464-1.732-0.615
		c-0.659-0.151-1.408-0.227-2.25-0.227h-0.647V328.214z M399.662,329.218c0.043,1.165,0.092,2.314,0.146,3.447
		c0.053,1.133,0.113,2.239,0.178,3.318c0.302,0.108,0.61,0.178,0.923,0.21c0.312,0.032,0.652,0.049,1.02,0.049
		c1.575,0,2.73-0.421,3.464-1.262c0.733-0.842,1.101-1.877,1.101-3.107c0-1.316-0.378-2.374-1.133-3.172
		c-0.906,0.194-1.813,0.329-2.719,0.405c-0.906,0.076-1.792,0.113-2.654,0.113H399.662z"/>
</g>
</svg>
