<?xml version="1.0" encoding="utf-8"?>
<!-- Generator: Adobe Illustrator 17.1.0, SVG Export Plug-In . SVG Version: 6.00 Build 0)  -->
<!DOCTYPE svg PUBLIC "-//W3C//DTD SVG 1.1//EN" "http://www.w3.org/Graphics/SVG/1.1/DTD/svg11.dtd">
<svg version="1.1" id="Layer_1" xmlns="http://www.w3.org/2000/svg" xmlns:xlink="http://www.w3.org/1999/xlink" x="0px" y="0px"
	 viewBox="0 0 792 612" enable-background="new 0 0 792 612" xml:space="preserve">
<circle fill="none" stroke="#81CDBE" stroke-width="7.2808" stroke-miterlimit="10" cx="407.6" cy="317.731" r="117.207"/>
<g>
	<path fill="#81CDBE" d="M453.776,244.753c0.512,0.341,1.109,0.783,1.792,1.322c0.683,0.541,1.351,1.209,2.005,2.005
		c0.653,0.797,1.207,1.706,1.664,2.73c0.455,1.024,0.683,2.162,0.683,3.413c0,1.48-0.256,2.901-0.768,4.266s-1.322,2.56-2.432,3.583
		c-1.109,1.024-2.531,1.834-4.266,2.432c-1.736,0.597-3.797,0.896-6.186,0.896c-2.958,0-5.901-0.284-8.831-0.853
		c-2.931-0.568-5.887-1.322-8.873-2.261c-2.986-0.939-6.002-2.005-9.044-3.2c-3.043-1.194-6.13-2.417-9.257-3.669
		c-0.171,19.17-0.782,37.599-1.834,55.288c-1.054,17.691-2.717,34.926-4.991,51.705c-0.683,1.933-1.352,3.285-2.005,4.053
		c-0.654,0.768-1.267,1.152-1.834,1.152c-0.456,0-0.798-0.186-1.024-0.555c-0.228-0.37-0.341-0.811-0.341-1.322v-0.597
		c1.024-8.247,1.805-16.339,2.346-24.274c0.54-7.935,0.967-15.841,1.28-23.719c0.311-7.877,0.54-15.841,0.683-23.89
		c0.141-8.048,0.327-16.339,0.555-24.871c0.114-2.843,0.199-5.503,0.256-7.978c0.055-2.474,0.085-4.991,0.085-7.551
		c-4.552-1.592-9.314-2.957-14.291-4.095c-4.979-1.137-10.226-1.706-15.742-1.706c-8.02,0-15.388,0.754-22.098,2.261
		c-6.712,1.508-12.487,3.94-17.32,7.295c-4.835,3.357-8.589,7.722-11.262,13.097c-2.675,5.375-4.01,11.931-4.01,19.667
		c0,2.845,0.427,5.746,1.28,8.703c0.853,2.959,2.261,5.646,4.223,8.063c1.962,2.418,4.522,4.394,7.679,5.93
		c3.157,1.536,7.039,2.304,11.646,2.304c3.98,0,7.366-0.582,10.153-1.749c2.786-1.165,5.148-2.573,7.082-4.223
		c1.933-1.649,3.511-3.37,4.735-5.162c1.223-1.792,2.231-3.341,3.029-4.65l1.195,0.683c-0.398,0.797-0.953,1.834-1.664,3.114
		c-0.712,1.28-1.621,2.66-2.73,4.138c-1.109,1.48-2.432,2.986-3.967,4.522c-1.536,1.536-3.315,2.93-5.333,4.181
		c-2.019,1.252-4.28,2.261-6.783,3.029c-2.504,0.768-5.29,1.152-8.362,1.152c-3.925,0-7.508-0.696-10.75-2.09
		c-3.242-1.393-6.015-3.355-8.319-5.887c-2.304-2.53-4.095-5.589-5.375-9.172c-1.28-3.583-1.92-7.594-1.92-12.03
		c0-5.403,0.781-10.38,2.346-14.931c1.564-4.55,3.724-8.645,6.484-12.286c2.759-3.64,6.015-6.839,9.769-9.599
		c3.754-2.758,7.807-5.062,12.158-6.911c4.351-1.848,8.902-3.242,13.651-4.181c4.748-0.939,9.513-1.408,14.291-1.408
		c5.687,0,11.035,0.541,16.04,1.621c5.004,1.081,9.782,2.418,14.334,4.01v-9.3c0-0.796,0.171-1.493,0.512-2.09
		c0.341-0.597,0.781-1.08,1.322-1.45c0.54-0.369,1.122-0.653,1.749-0.853c0.626-0.198,1.195-0.299,1.706-0.299
		c0.455,0,0.823,0.085,1.109,0.256c0.284,0.171,0.427,0.427,0.427,0.768v15.443c3.298,1.252,6.527,2.503,9.684,3.754
		c3.157,1.252,6.3,2.389,9.428,3.413c3.127,1.024,6.257,1.849,9.385,2.474c3.127,0.626,6.342,0.939,9.641,0.939
		c1.079,0,2.176-0.141,3.285-0.427c1.109-0.284,2.103-0.696,2.986-1.237c0.882-0.54,1.591-1.237,2.133-2.09
		c0.54-0.853,0.811-1.848,0.811-2.986c0-1.819-0.483-3.27-1.45-4.351c-0.968-1.08-1.992-2.019-3.072-2.816L453.776,244.753z"/>
</g>
<g>
	<path fill="#81CDBE" d="M410.045,393.304c0.909,0.626,1.762,1.194,2.56,1.706c0.796,0.512,1.65,1.024,2.56,1.536
		c-0.171-2.73-0.299-5.403-0.384-8.02c-0.085-2.616-0.185-5.232-0.299-7.85c-2.334-0.171-4.238-0.54-5.717-1.109
		c-1.48-0.568-2.218-1.421-2.218-2.56c0-1.251,0.695-2.189,2.09-2.816c1.394-0.625,3.285-1.024,5.674-1.195v-10.153
		c0-6.826,0.055-13.423,0.171-19.795c0.114-6.37,0.311-12.684,0.597-18.941c0.284-6.256,0.683-12.542,1.194-18.856
		c0.512-6.314,1.195-12.798,2.048-19.453c-5.859,2.162-11.447,4.778-16.766,7.85c-5.32,3.072-9.997,6.585-14.035,10.537
		c-4.04,3.954-7.252,8.334-9.641,13.139c-2.389,4.807-3.583,9.969-3.583,15.486c0,1.194,0.199,2.575,0.597,4.138
		c0.397,1.565,0.994,3.157,1.792,4.778c0.796,1.621,1.792,3.186,2.986,4.693c1.194,1.508,2.588,2.802,4.181,3.882l-1.024,1.195
		c-1.763-1.195-3.299-2.602-4.607-4.223c-1.31-1.621-2.403-3.298-3.285-5.034c-0.883-1.734-1.536-3.469-1.962-5.205
		c-0.427-1.734-0.64-3.37-0.64-4.906c0-5.802,1.308-11.262,3.925-16.382c2.615-5.119,6.1-9.84,10.452-14.163
		c4.351-4.322,9.313-8.219,14.889-11.689c5.574-3.469,11.318-6.455,17.235-8.959c0.114-0.625,0.226-1.28,0.341-1.962
		c0.114-0.683,0.226-1.365,0.341-2.048c0.114-0.739,0.226-1.507,0.341-2.304c0.114-0.796,0.171-1.251,0.171-1.365
		c0-0.568-0.014-1.152-0.043-1.749c-0.03-0.597,0.213-0.896,0.725-0.896c0.341,0,0.711,0.114,1.109,0.341
		c0.397,0.228,0.768,0.512,1.109,0.853s0.64,0.725,0.896,1.152c0.256,0.427,0.384,0.811,0.384,1.152
		c-0.115,0.853-0.228,1.679-0.341,2.474c-0.115,0.797-0.228,1.593-0.341,2.389c5.631-1.99,11.092-3.541,16.382-4.65
		c5.29-1.109,10.096-1.664,14.419-1.664c5.857,0,11.419,0.712,16.68,2.133c5.26,1.423,9.883,3.655,13.865,6.698
		c3.98,3.044,7.124,6.969,9.428,11.774c2.304,4.807,3.456,10.595,3.456,17.363c0,6.03-0.768,11.718-2.304,17.064
		c-1.536,5.348-3.669,10.339-6.399,14.974c-2.73,4.637-5.973,8.903-9.727,12.798c-3.754,3.897-7.837,7.367-12.244,10.409
		c-4.408,3.044-9.074,5.646-13.993,7.807c-4.92,2.162-9.884,3.869-14.889,5.119c1.421,1.309,2.474,2.802,3.157,4.479
		c0.683,1.679,1.024,3.485,1.024,5.418c0,1.65-0.286,3.285-0.853,4.906c-0.569,1.621-1.438,3.101-2.602,4.437
		c-1.166,1.337-2.645,2.418-4.437,3.242c-1.792,0.826-3.882,1.237-6.271,1.237c-1.365,0-2.702-0.115-4.01-0.341
		c-1.31-0.227-2.531-0.512-3.669-0.853c0.114,1.024,0.199,2.048,0.256,3.072c0.055,1.024,0.141,2.019,0.256,2.986
		c0,0.284,0.028,0.696,0.085,1.237c0.055,0.54,0.085,0.896,0.085,1.067c0,0.512-0.213,0.966-0.64,1.365
		c-0.427,0.397-0.782,0.597-1.067,0.597c-1.877,0-2.986-1.423-3.328-4.266c-0.171-1.48-0.328-2.916-0.469-4.309
		c-0.142-1.393-0.27-2.801-0.384-4.223c-1.31-0.796-2.474-1.592-3.498-2.389c-1.024-0.796-1.907-1.507-2.645-2.133L410.045,393.304z
		 M414.482,378.031c0-0.454-0.03-0.881-0.085-1.28c-0.057-0.397-0.085-0.824-0.085-1.28c-1.992,0.341-2.986,0.853-2.986,1.536
		c0,0.341,0.299,0.57,0.896,0.683C412.818,377.804,413.571,377.918,414.482,378.031z M419.345,348.68
		c0,3.242-0.03,6.926-0.085,11.049c-0.057,4.125-0.03,8.433,0.085,12.926h1.536c3.072,0,5.887,0.356,8.447,1.067
		c2.56,0.712,4.748,1.693,6.57,2.944c4.892-0.909,9.67-2.289,14.334-4.138c4.663-1.848,9.057-4.123,13.182-6.826
		c4.124-2.701,7.905-5.845,11.348-9.428c3.441-3.583,6.399-7.594,8.873-12.03c2.474-4.437,4.407-9.3,5.802-14.59
		c1.394-5.29,2.09-11.006,2.09-17.15c0-5.062-0.883-9.669-2.645-13.822c-1.763-4.152-4.253-7.692-7.466-10.623
		c-3.214-2.929-7.069-5.205-11.561-6.826c-4.494-1.621-9.501-2.432-15.017-2.432c-4.949,0-10.125,0.442-15.529,1.323
		c-5.405,0.882-10.836,2.205-16.296,3.967c-0.91,8.476-1.621,15.912-2.133,22.312s-0.883,12.116-1.109,17.15
		c-0.228,5.034-0.355,9.556-0.384,13.566C419.358,341.129,419.345,344.984,419.345,348.68z M419.516,378.202h0.341
		c1.991,0,3.98-0.056,5.972-0.171c1.991-0.113,3.953-0.341,5.887-0.683c-1.31-0.683-2.83-1.222-4.565-1.621
		c-1.736-0.397-3.711-0.597-5.93-0.597h-1.706V378.202z M419.516,380.847c0.114,3.072,0.242,6.1,0.384,9.087
		c0.141,2.986,0.299,5.902,0.469,8.745c0.796,0.285,1.607,0.469,2.432,0.555c0.823,0.085,1.719,0.128,2.688,0.128
		c4.151,0,7.195-1.109,9.129-3.328c1.933-2.218,2.901-4.949,2.901-8.191c0-3.469-0.995-6.256-2.986-8.362
		c-2.389,0.512-4.778,0.868-7.167,1.067c-2.389,0.2-4.723,0.299-6.996,0.299H419.516z"/>
</g>
</svg>
