<?xml version="1.0" encoding="utf-8"?>
<!-- Generator: Adobe Illustrator 17.1.0, SVG Export Plug-In . SVG Version: 6.00 Build 0)  -->
<!DOCTYPE svg PUBLIC "-//W3C//DTD SVG 1.1//EN" "http://www.w3.org/Graphics/SVG/1.1/DTD/svg11.dtd">
<svg version="1.1" id="Layer_1" xmlns="http://www.w3.org/2000/svg" xmlns:xlink="http://www.w3.org/1999/xlink" x="0px" y="0px"
	 viewBox="0 0 360 360" enable-background="new 0 0 360 360" xml:space="preserve">
<path fill="#81CDBD" d="M180.372,117.883c-34.23,0-61.979,27.749-61.979,61.979c0,34.23,27.749,61.979,61.979,61.979
	s61.979-27.749,61.979-61.979C242.351,145.632,214.602,117.883,180.372,117.883z M209.28,164.492
	c1.81,18.884-13.415,45.2-43.066,45.392c-8.091,0.052-15.662-2.231-22.132-6.107c0.176,0.002,11.186,0.769,21.395-6.734
	c-6.67-0.327-12.259-4.759-14.299-10.823c1.279,0.331,4.597,0.925,7.364,0.148c-6.904-1.482-12.147-7.436-12.541-14.684
	c1.869,0.815,3.923,1.28,6.082,1.317c-3.717-2.915-9.139-11.084-3.963-20.508c7.226,9.34,18.449,15.43,31.105,15.704
	c-0.049-0.137-0.326-2.553-0.326-3.136c0-7.494,5.801-15.223,15.221-15.223c4.459,0,8.466,1.917,11.25,4.972
	c4.268-0.796,8.642-3.262,9.549-3.819c-1.189,3.488-3.608,6.405-6.739,8.237c0.022,0.053,0.045,0.104,0.068,0.158
	c2.955-0.359,5.781-1.139,8.415-2.282C215.15,160.353,212.526,162.978,209.28,164.492z"/>
</svg>
